<svg width="16" height="16" viewBox="0 0 16 16" fill="none" xmlns="http://www.w3.org/2000/svg">
<g clip-path="url(#clip0_122_3)">
<path d="M16 4.88889C16 4.65314 15.9064 4.42705 15.7397 4.26035C15.573 4.09365 15.3469 4 15.1111 4C14.8754 4 14.6493 4.09365 14.4826 4.26035C14.3159 4.42705 14.2222 4.65314 14.2222 4.88889C14.2222 4.88889 14.2173 6.34889 12.8889 6.61956V5.33333C12.8889 2.63333 10.7 0.444444 8 0.444444C5.3 0.444444 3.11111 2.63333 3.11111 5.33333V6.772C0.790222 7.46933 0 10.3249 0 12C0 12.2357 0.0936505 12.4618 0.26035 12.6285C0.427049 12.7952 0.653141 12.8889 0.888889 12.8889C1.12464 12.8889 1.35073 12.7952 1.51743 12.6285C1.68413 12.4618 1.77778 12.2357 1.77778 12C1.77778 12 1.77867 10.4267 3.26044 10.2409C3.48356 12.3924 3.97956 14.6667 4.88889 14.6667H5.33333C7.11111 14.6667 6.66667 15.5556 8.44444 15.5556C10.2222 15.5556 9.77778 14.6667 11.1111 14.6667C12.4444 14.6667 12.1756 15.5556 13.7778 15.5556C14.1314 15.5556 14.4705 15.4151 14.7206 15.165C14.9706 14.915 15.1111 14.5758 15.1111 14.2222C15.1111 13.9222 14.1004 12.0027 13.4422 10.1031C15.9916 9.488 16 6.48 16 4.88889Z" fill="#E1E8ED"/>
<path d="M5.77778 6.22222C6.2687 6.22222 6.66667 5.82425 6.66667 5.33333C6.66667 4.84241 6.2687 4.44444 5.77778 4.44444C5.28686 4.44444 4.88889 4.84241 4.88889 5.33333C4.88889 5.82425 5.28686 6.22222 5.77778 6.22222Z" fill="#292F33"/>
<path d="M10.2222 7.11111C11.2041 7.11111 12 6.31517 12 5.33333C12 4.35149 11.2041 3.55556 10.2222 3.55556C9.24038 3.55556 8.44444 4.35149 8.44444 5.33333C8.44444 6.31517 9.24038 7.11111 10.2222 7.11111Z" fill="#292F33"/>
<path d="M10.2222 6.66667C10.7131 6.66667 11.1111 6.2687 11.1111 5.77778C11.1111 5.28686 10.7131 4.88889 10.2222 4.88889C9.7313 4.88889 9.33333 5.28686 9.33333 5.77778C9.33333 6.2687 9.7313 6.66667 10.2222 6.66667Z" fill="#9AAAB4"/>
<path d="M9.86311 8.66267C11.0409 9.54578 11.4591 10.9787 10.7964 11.8622C10.1338 12.7458 8.64133 12.7458 7.46311 11.8622C6.28533 10.9791 5.86711 9.54622 6.52978 8.66267C7.19289 7.77867 8.68489 7.77911 9.86311 8.66267Z" fill="#292F33"/>
</g>
<defs>
<clipPath id="clip0_122_3">
<rect width="16" height="16" fill="white"/>
</clipPath>
</defs>
</svg>
